{"title":"The Art of Noise:  In Visible Silence  [FLAC/LOG/CUE/IMG/AR]","uid":10670017,"size":304155769,"categoryP":"audio","categoryS":"flac","magnet":"?xt=urn:btih:fbeee5dfb07bb3b6185046cf7c59191dd9b221e4&amp;dn=The+Art+of+Noise%3A++In+Visible+Silence++%5BFLAC%2FLOG%2FCUE%2FIMG%2FAR%5D&amp;tr=udp%3A%2F%2Ftracker.openbittorrent.com%3A80&amp;tr=udp%3A%2F%2Fopen.demonii.com%3A1337&amp;tr=udp%3A%2F%2Ftracker.coppersurfer.tk%3A6969&amp;tr=udp%3A%2F%2Fexodus.desync.com%3A6969","seeders":1,"leechers":0,"uploader":null,"files":-1,"time":1406855323,"description":"WELCOME BACK, DEMONOID!\n\n\n\n\nThe Art of Noise:  In Visible Silence\n1986 UK China Records [CCD 1528]\n\n01 \tOpus 4  - 2:00\n02 \tParanoimia  - 4:46\n03 \tEye Of A Needle  - 4:23\n04 \tLegs  - 4:06\n05 \tSlip Of The Tongue  - 1:28\n06 \tBackbeat  - 4:08\n07 \tInstruments of Darkness  - 7:14\n08 \tPeter Gunn  - 3:58\n09 \tCamilla  - 7:23\n10 \tChameleon's Dish  - 4:16\n11 \tBeatback  - 1:20\n12 \tPeter Gunn (Extended Version)  - 6:01\n\nRipped with CueRipper (sorry, EAC is too inefficient).  Encoded in FLAC level 8.  If you want to split the files, I recommend CueTools (Windows freeware).\n\n[CUETools log; Date: 2014-07-28 20:09:00; Version: 2.1.4]\nPregap length 00:00:37.\n[AccurateRip ID: 00157d9f-00cd6852-8d0bfd0c] found.\nTrack   [  CRC   |   V2   ] Status\n 01     [a794e59f|f2378068] (12+06/35) Accurately ripped\n 02     [5a445257|97e4ff4c] (12+06/35) Accurately ripped\n 03     [9b63337b|61c1a12f] (11+06/33) Accurately ripped\n 04     [27130f98|ff4167fa] (12+06/35) Accurately ripped\n 05     [7b0b6f55|7cc7cb25] (12+06/35) Accurately ripped\n 06     [8b4fd9bd|9c1ed9bb] (12+06/35) Accurately ripped\n 07     [09371440|7acb0269] (12+06/35) Accurately ripped\n 08     [41436698|a0b032f5] (12+06/35) Accurately ripped\n 09     [c73b0e1e|7d3989a2] (12+06/35) Accurately ripped\n 10     [c9522e88|98f19528] (12+06/34) Accurately ripped\n 11     [7c9319f0|7e1a73bf] (12+06/35) Accurately ripped\n 12     [da4308bb|e1ac208d] (12+06/35) Accurately ripped\nOffsetted by -658:\n 01     [8245d1ae] (08/35) Accurately ripped\n 02     [d7e4fa52] (08/35) Accurately ripped\n 03     [fd1ab596] (07/33) Accurately ripped\n 04     [3c7014f2] (08/35) Accurately ripped\n 05     [1bb07502] (08/35) Accurately ripped\n 06     [f41e0dbe] (08/35) Accurately ripped\n 07     [060d65d4] (08/35) Accurately ripped\n 08     [d8b83944] (08/35) Accurately ripped\n 09     [206da0a0] (08/35) Accurately ripped\n 10     [ab366929] (07/34) Accurately ripped\n 11     [6baed944] (08/35) Accurately ripped\n 12     [c27732a7] (08/35) Accurately ripped","torrent":{"xt":"urn:btih:fbeee5dfb07bb3b6185046cf7c59191dd9b221e4","amp;dn":"The+Art+of+Noise%3A++In+Visible+Silence++%5BFLAC%2FLOG%2FCUE%2FIMG%2FAR%5D","amp;tr":["udp%3A%2F%2Ftracker.openbittorrent.com%3A80","udp%3A%2F%2Fopen.demonii.com%3A1337","udp%3A%2F%2Ftracker.coppersurfer.tk%3A6969","udp%3A%2F%2Fexodus.desync.com%3A6969"],"infoHash":"fbeee5dfb07bb3b6185046cf7c59191dd9b221e4","infoHashBuffer":{"type":"Buffer","data":[251,238,229,223,176,123,179,182,24,80,70,207,124,89,25,29,217,178,33,228]},"announce":[],"urlList":[]}}